<!-- Generated by IcoMoon.io -->
<svg version="1.1" xmlns="http://www.w3.org/2000/svg" width="1598" height="1024" viewBox="0 0 1598 1024">
<title>Vector11</title>
<g id="icomoon-ignore">
</g>
<path fill="#61a568" d="M1526.479 222.888c-15.877-58.837-48.508-111.371-93.651-150.766-98.594-86.091-227.378-89.714-376.043-39.316-28.487 9.525-58.253 14.308-88.191 14.171h-354.923c-29.903 0.126-59.637-4.657-88.089-14.171-148.665-50.397-277.449-46.775-376.045 39.316-45.141 39.416-77.801 91.937-93.754 150.766-76.239 281.287-77.269 522.939 15.145 715.793 42.034 87.262 107.147 103.352 188.95 67.444 23.827-10.64 46.257-24.349 66.76-40.808 59.065-46.829 108.429-105.455 145.163-172.394 6.389-11.828 12.57-23.869 17.72-36.442 41.212-90.671 103.851-142.773 199.355-132.65l102.305 2.13 102.203-2.13c95.814-9.698 157.631 42.406 199.458 132.65 5.565 12.148 11.334 24.186 17.72 36.015 36.659 67.117 86.031 125.897 145.166 172.821 20.5 16.459 42.933 30.168 66.76 40.808 81.803 35.907 146.914 19.818 188.95-67.444 92.415-192.854 91.074-434.506 15.040-715.793zM351.776 554.041c-38.068 0.020-75.286-11.636-106.948-33.492s-56.345-52.933-70.927-89.3c-14.582-36.367-18.408-76.39-10.994-115.005s25.735-74.089 52.646-101.935c26.911-27.846 61.201-46.812 98.538-54.501s76.036-3.753 111.209 11.308c35.171 15.061 65.234 40.572 86.386 73.305s32.441 71.219 32.441 110.588c-0.027 52.758-20.298 103.352-56.36 140.668-36.065 37.316-84.975 58.308-135.99 58.366zM751.621 553.187h-89.53v-41.020h89.53v41.020zM920.274 553.187h-89.528v-41.020h89.528v41.020zM1184.021 175.581c14.216-14.678 33.485-22.923 53.573-22.923 20.090 0 39.359 8.244 53.575 22.923 10.582 10.956 17.785 24.91 20.7 40.099 2.917 15.189 1.411 30.931-4.321 45.236-5.734 14.306-15.44 26.532-27.89 35.133-12.453 8.602-27.089 13.192-42.064 13.192-14.973 0-29.609-4.591-42.061-13.192-12.45-8.602-22.156-20.827-27.89-35.133-5.732-14.305-7.238-30.047-4.323-45.236 2.917-15.189 10.12-29.143 20.702-40.099zM1063.274 411.158c-14.209-14.693-22.191-34.624-22.191-55.406 0-20.78 7.982-40.71 22.191-55.403 14.209-14.696 33.48-22.95 53.575-22.95 20.093 0 39.364 8.254 53.573 22.95 7.036 7.275 12.615 15.912 16.424 25.42 3.806 9.506 5.767 19.696 5.767 29.983 0 10.29-1.961 20.48-5.767 29.986-3.809 9.508-9.388 18.145-16.424 25.42s-15.387 13.047-24.578 16.986c-9.194 3.939-19.046 5.964-28.994 5.964-20.095 0-39.367-8.254-53.575-22.95zM1289.933 534.543c-12.418 12.9-28.779 20.945-46.292 22.76-17.513 1.818-35.093-2.705-49.741-12.798-14.648-10.090-25.458-25.125-30.585-42.538s-4.253-36.127 2.473-52.948c6.723-16.821 18.884-30.71 34.404-39.294 15.522-8.584 33.442-11.334 50.703-7.78 17.263 3.554 32.798 13.19 43.957 27.268 11.159 14.076 17.248 31.722 17.233 49.924 0.002 10.305-1.973 20.51-5.809 30.021-3.839 9.511-9.463 18.137-16.549 25.385h0.207zM1410.68 409.667c-10.607 10.964-24.116 18.432-38.827 21.457-14.708 3.025-29.953 1.469-43.807-4.466-13.854-5.937-25.695-15.989-34.027-28.884s-12.778-28.055-12.778-43.565c0-15.51 4.446-30.67 12.778-43.565 8.332-12.897 20.173-22.948 34.027-28.884 13.854-5.934 29.099-7.49 43.807-4.466 14.711 3.025 28.22 10.492 38.827 21.457 14.171 14.748 22.108 34.709 22.071 55.503-0.040 20.792-8.052 40.72-22.278 55.413h0.207z"></path>
</svg>
